<?xml version="1.0" encoding="UTF-8" standalone="no"?>
<!-- Created with Inkscape (http://www.inkscape.org/) -->

<svg
   xmlns:dc="http://purl.org/dc/elements/1.1/"
   xmlns:cc="http://creativecommons.org/ns#"
   xmlns:rdf="http://www.w3.org/1999/02/22-rdf-syntax-ns#"
   xmlns:svg="http://www.w3.org/2000/svg"
   xmlns="http://www.w3.org/2000/svg"
   xmlns:sodipodi="http://sodipodi.sourceforge.net/DTD/sodipodi-0.dtd"
   xmlns:inkscape="http://www.inkscape.org/namespaces/inkscape"
   width="141.73228"
   height="106.29921"
   id="svg2"
   version="1.1"
   inkscape:version="0.48.4 r9939"
   sodipodi:docname="cat.svg">
  <defs
     id="defs4" />
  <sodipodi:namedview
     id="base"
     pagecolor="#ffffff"
     bordercolor="#666666"
     borderopacity="1.0"
     inkscape:pageopacity="0.0"
     inkscape:pageshadow="2"
     inkscape:zoom="3.959798"
     inkscape:cx="67.802709"
     inkscape:cy="62.591892"
     inkscape:document-units="mm"
     inkscape:current-layer="layer1"
     showgrid="false"
     units="mm"
     borderlayer="true"
     showguides="true"
     inkscape:snap-global="true"
     inkscape:guide-bbox="true"
     inkscape:window-width="1551"
     inkscape:window-height="876"
     inkscape:window-x="49"
     inkscape:window-y="24"
     inkscape:window-maximized="1">
    <sodipodi:guide
       orientation="0,1"
       position="-79.802051,0"
       id="guide3096" />
    <sodipodi:guide
       orientation="1,0"
       position="0,89.3985"
       id="guide3098" />
    <sodipodi:guide
       orientation="1,0"
       position="141.73228,85.610428"
       id="guide3100" />
    <sodipodi:guide
       orientation="0,1"
       position="-9.0913729,106.29921"
       id="guide3102" />
    <sodipodi:guide
       orientation="0,1"
       position="90.408653,157.07872"
       id="guide4222" />
  </sodipodi:namedview>
  <metadata
     id="metadata7">
    <rdf:RDF>
      <cc:Work
         rdf:about="">
        <dc:format>image/svg+xml</dc:format>
        <dc:type
           rdf:resource="http://purl.org/dc/dcmitype/StillImage" />
        <dc:title></dc:title>
      </cc:Work>
    </rdf:RDF>
  </metadata>
  <g
     inkscape:label="Layer 1"
     inkscape:groupmode="layer"
     id="layer1"
     transform="translate(0,-946.06298)">
    <g
       id="g4155">
      <g
         id="g4119">
        <g
           id="g4080">
          <g
             id="g4050">
            <path
               style="fill:none;stroke:#000000;stroke-width:0.99921260000000001;stroke-linecap:round;stroke-linejoin:miter;stroke-opacity:1;stroke-miterlimit:4;stroke-dasharray:none"
               d="m 39.522218,47.773497 c 0,0 -0.06313,4.924493 -1.136421,6.565991 -1.073287,1.641498 -3.409265,1.262691 -3.409265,1.262691"
               id="path4022"
               inkscape:connector-curvature="0"
               transform="translate(0,946.06298)"
               sodipodi:nodetypes="csc" />
            <path
               style="fill:none;stroke:#000000;stroke-width:1px;stroke-linecap:round;stroke-linejoin:miter;stroke-opacity:1"
               d="m 41.605658,57.243677 c 0,0 -1.925604,-0.978586 -2.272843,-2.872622 -0.133257,-0.726857 0.378807,-6.597559 0.378807,-6.597559"
               id="path4024"
               inkscape:connector-curvature="0"
               transform="translate(0,946.06298)"
               sodipodi:nodetypes="csc" />
          </g>
          <g
             id="g4075">
            <path
               style="fill:none;stroke:#000000;stroke-width:1px;stroke-linecap:round;stroke-linejoin:miter;stroke-opacity:1"
               d="m 14.955357,47.102781 c 9.107143,-0.267857 18.526786,0.580357 20.937501,1.919643"
               id="path4056"
               inkscape:connector-curvature="0"
               transform="translate(0,946.06298)"
               sodipodi:nodetypes="cc" />
            <path
               style="fill:none;stroke:#000000;stroke-width:1px;stroke-linecap:round;stroke-linejoin:miter;stroke-opacity:1"
               d="m 12.589286,56.165281 c 6.383928,-2.723214 14.6875,-4.821429 18.392857,-4.821429"
               id="path4058"
               inkscape:connector-curvature="0"
               transform="translate(0,946.06298)" />
            <path
               style="fill:none;stroke:#000000;stroke-width:1px;stroke-linecap:round;stroke-linejoin:miter;stroke-opacity:1"
               d="m 13.258929,63.620638 c 6.785714,-4.241071 12.321428,-7.098214 17.1875,-8.4375"
               id="path4060"
               inkscape:connector-curvature="0"
               transform="translate(0,946.06298)" />
          </g>
          <g
             id="g4070">
            <path
               style="fill:none;stroke:#000000;stroke-width:1px;stroke-linecap:round;stroke-linejoin:miter;stroke-opacity:1"
               d="m 45.133929,49.111709 c 8.125,-2.678571 15.892857,-3.660714 18.526785,-3.928571"
               id="path4062"
               inkscape:connector-curvature="0"
               transform="translate(0,946.06298)" />
            <path
               style="fill:none;stroke:#000000;stroke-width:1px;stroke-linecap:round;stroke-linejoin:miter;stroke-opacity:1"
               d="m 45.446429,51.120638 c 10.357143,-2.276786 25.446428,-2.1875 28.75,-2.1875"
               id="path4064"
               inkscape:connector-curvature="0"
               transform="translate(0,946.06298)" />
            <path
               style="fill:none;stroke:#000000;stroke-width:1px;stroke-linecap:round;stroke-linejoin:miter;stroke-opacity:1"
               d="m 46.875,52.638495 c 7.678572,0.133929 14.107143,1.785714 17.366072,3.169643"
               id="path4068"
               inkscape:connector-curvature="0"
               transform="translate(0,946.06298)" />
          </g>
        </g>
        <g
           id="g4111">
          <path
             sodipodi:nodetypes="ssss"
             transform="translate(0,946.06298)"
             inkscape:connector-curvature="0"
             id="path4093"
             d="m 31.964286,35.183138 c -2.035531,0.325434 -2.633929,7.1875 -1.205357,7.544643 1.428571,0.357143 2.232143,-2.098214 2.321428,-3.616072 0.08929,-1.517857 0.142081,-4.12972 -1.116071,-3.928571 z"
             style="fill:#000000;fill-opacity:1;stroke:none;stroke-opacity:1" />
          <path
             sodipodi:nodetypes="ssss"
             transform="translate(0,946.06298)"
             inkscape:connector-curvature="0"
             id="path4095"
             d="m 48.616071,38.397424 c -2.769613,0.678849 -2.633928,6.5625 -1.249999,6.651785 1.383928,0.08929 2.321428,-2.276785 2.276785,-3.705357 -0.04464,-1.428571 -0.02264,-3.192551 -1.026786,-2.946428 z"
             style="fill:#000000;fill-opacity:1;stroke:none;stroke-opacity:1" />
        </g>
        <g
           id="g4115">
          <path
             sodipodi:nodetypes="ccc"
             transform="translate(0,946.06298)"
             inkscape:connector-curvature="0"
             id="path4097"
             d="m 16.541248,28.264925 c -0.757615,-5.934646 -1.325825,-12.563772 -0.820749,-12.942579 3.276978,1.67872 8.871048,5.498554 12.690041,9.912122"
             style="fill:none;stroke:#000000;stroke-width:0.99921260000000001;stroke-linecap:round;stroke-linejoin:round;stroke-opacity:1;stroke-miterlimit:4;stroke-dasharray:none" />
          <path
             sodipodi:nodetypes="ccc"
             transform="translate(0,946.06298)"
             inkscape:connector-curvature="0"
             id="path4099"
             d="m 59.788404,27.759849 c 4.966734,-4.918918 10.732871,-8.712566 10.732871,-8.712566 0,0 0.644806,7.249958 -0.883884,13.826463"
             style="fill:none;stroke:#000000;stroke-width:1px;stroke-linecap:round;stroke-linejoin:round;stroke-opacity:1" />
        </g>
      </g>
      <g
         id="g4147">
        <g
           id="g4139">
          <path
             sodipodi:nodetypes="cscscsc"
             transform="translate(0,946.06298)"
             inkscape:connector-curvature="0"
             id="path4101"
             d="m 32.589286,79.959924 c -1.607143,1.160714 -2.566965,2.745535 -2.209822,2.745535 0.357143,0 0.825893,0.334822 0.825893,0.334822 0,0 0.224832,1.189291 0.669643,1.517857 0.307329,0.227013 1.138393,0.133929 1.138393,0.133929 0,0 0.310474,0.992356 0.736603,1.071428 1.04705,0.194289 2.633928,-1.808035 2.633928,-1.808035"
             style="fill:none;stroke:#000000;stroke-width:1px;stroke-linecap:round;stroke-linejoin:round;stroke-opacity:1" />
          <path
             sodipodi:nodetypes="cscscsc"
             transform="translate(0,946.06298)"
             inkscape:connector-curvature="0"
             id="path4103"
             d="m 42.232143,83.308138 c 0,0 -2.486201,2.237315 -1.785714,3.258929 0.382036,0.557173 1.651785,0.267857 1.651785,0.267857 0,0 0.385834,0.71949 0.848215,0.982143 0.464548,0.263884 1.5625,-0.357143 1.5625,-0.357143 0,0 0.756464,0.845774 1.25,0.803571 1.448181,-0.123838 3.214285,-2.946428 3.214285,-2.946428"
             style="fill:none;stroke:#000000;stroke-width:1px;stroke-linecap:round;stroke-linejoin:round;stroke-opacity:1" />
        </g>
        <g
           id="g4143">
          <path
             sodipodi:nodetypes="cscscsc"
             transform="translate(0,946.06298)"
             inkscape:connector-curvature="0"
             id="path4105"
             d="m 77.718612,82.560625 c 0,0 -0.935629,1.123676 -0.726047,1.704632 0.132551,0.367429 1.041719,0.536644 1.041719,0.536644 0,0 0.247501,0.668293 0.536644,0.820749 0.437567,0.230715 1.483661,-0.03157 1.483661,-0.03157 0,0 0.579262,0.584893 0.947018,0.568211 1.0155,-0.04606 2.462247,-1.799334 2.462247,-1.799334"
             style="fill:none;stroke:#000000;stroke-width:1px;stroke-linecap:round;stroke-linejoin:round;stroke-opacity:1" />
          <path
             sodipodi:nodetypes="cscscsc"
             transform="translate(0,946.06298)"
             inkscape:connector-curvature="0"
             id="path4107"
             d="m 90.598057,82.434356 c 0,0 -0.288027,1.415782 0.126269,1.894036 0.331061,0.38217 1.483661,0.315672 1.483661,0.315672 0,0 0.42674,0.716107 0.789182,0.852317 0.376361,0.141441 1.199556,-0.12627 1.199556,-0.12627 0,0 0.392965,0.786567 0.757615,0.789182 1.227669,0.0088 2.588515,-2.620083 2.588515,-2.620083"
             style="fill:none;stroke:#000000;stroke-width:1px;stroke-linecap:round;stroke-linejoin:round;stroke-opacity:1" />
        </g>
      </g>
      <path
         sodipodi:nodetypes="csc"
         transform="translate(0,946.06298)"
         inkscape:connector-curvature="0"
         id="path4109"
         d="m 100.17857,53.442067 c 11.60714,-2.321429 7.58929,-5.803572 13.03572,-10.714286 4.92315,-4.438902 10,0.535714 10,0.535714"
         style="fill:none;stroke:#000000;stroke-width:1px;stroke-linecap:round;stroke-linejoin:miter;stroke-opacity:1" />
    </g>
  </g>
</svg>
