<?xml version="1.0" encoding="UTF-8" standalone="no"?>
<!-- Created with Inkscape (http://www.inkscape.org/) -->

<svg
   xmlns:dc="http://purl.org/dc/elements/1.1/"
   xmlns:cc="http://creativecommons.org/ns#"
   xmlns:rdf="http://www.w3.org/1999/02/22-rdf-syntax-ns#"
   xmlns:svg="http://www.w3.org/2000/svg"
   xmlns="http://www.w3.org/2000/svg"
   xmlns:sodipodi="http://sodipodi.sourceforge.net/DTD/sodipodi-0.dtd"
   xmlns:inkscape="http://www.inkscape.org/namespaces/inkscape"
   width="141.73228"
   height="106.29921"
   id="svg2"
   version="1.1"
   inkscape:version="0.48.4 r9939"
   sodipodi:docname="cat_walking.svg"
   inkscape:export-filename="/home/michal/programowanie/html/catimator/images/cat/cat.png"
   inkscape:export-xdpi="300"
   inkscape:export-ydpi="300">
  <defs
     id="defs4" />
  <sodipodi:namedview
     id="base"
     pagecolor="#ffffff"
     bordercolor="#666666"
     borderopacity="1.0"
     inkscape:pageopacity="0.0"
     inkscape:pageshadow="2"
     inkscape:zoom="5.6"
     inkscape:cx="79.242525"
     inkscape:cy="44.071206"
     inkscape:document-units="mm"
     inkscape:current-layer="layer1"
     showgrid="false"
     units="mm"
     borderlayer="true"
     showguides="true"
     inkscape:snap-global="true"
     inkscape:guide-bbox="true"
     inkscape:window-width="1551"
     inkscape:window-height="876"
     inkscape:window-x="49"
     inkscape:window-y="24"
     inkscape:window-maximized="1">
    <sodipodi:guide
       orientation="0,1"
       position="-79.802051,0"
       id="guide3096" />
    <sodipodi:guide
       orientation="1,0"
       position="0,89.3985"
       id="guide3098" />
    <sodipodi:guide
       orientation="1,0"
       position="141.73228,85.610428"
       id="guide3100" />
    <sodipodi:guide
       orientation="0,1"
       position="-9.0913729,106.29921"
       id="guide3102" />
    <sodipodi:guide
       orientation="0,1"
       position="90.408653,157.07872"
       id="guide4222" />
  </sodipodi:namedview>
  <metadata
     id="metadata7">
    <rdf:RDF>
      <cc:Work
         rdf:about="">
        <dc:format>image/svg+xml</dc:format>
        <dc:type
           rdf:resource="http://purl.org/dc/dcmitype/StillImage" />
        <dc:title></dc:title>
      </cc:Work>
    </rdf:RDF>
  </metadata>
  <g
     inkscape:label="Layer 1"
     inkscape:groupmode="layer"
     id="layer1"
     transform="translate(0,-946.06298)">
    <g
       id="g4155">
      <g
         id="g4119">
        <g
           id="g4080">
          <g
             id="g4050">
            <path
               style="fill:none;stroke:#000000;stroke-width:0.99921260000000001;stroke-linecap:round;stroke-linejoin:miter;stroke-opacity:1;stroke-miterlimit:4;stroke-dasharray:none"
               d="m 39.522218,47.773497 c 0,0 -0.06313,4.924493 -1.136421,6.565991 -1.073287,1.641498 -3.409265,1.262691 -3.409265,1.262691"
               id="path4022"
               inkscape:connector-curvature="0"
               transform="translate(0,946.06298)"
               sodipodi:nodetypes="csc" />
            <path
               style="fill:none;stroke:#000000;stroke-width:1px;stroke-linecap:round;stroke-linejoin:miter;stroke-opacity:1"
               d="m 41.605658,57.243677 c 0,0 -1.925604,-0.978586 -2.272843,-2.872622 -0.133257,-0.726857 0.378807,-6.597559 0.378807,-6.597559"
               id="path4024"
               inkscape:connector-curvature="0"
               transform="translate(0,946.06298)"
               sodipodi:nodetypes="csc" />
          </g>
          <g
             id="g4075">
            <path
               style="fill:none;stroke:#000000;stroke-width:1px;stroke-linecap:round;stroke-linejoin:miter;stroke-opacity:1"
               d="m 16.282503,989.14267 c 8.989342,1.48443 18.071246,4.12415 20.180217,5.90108"
               id="path4056"
               inkscape:connector-curvature="0"
               sodipodi:nodetypes="cc"
               inkscape:transform-center-x="10.020247"
               inkscape:transform-center-y="-5.9139461" />
            <path
               style="fill:none;stroke:#000000;stroke-width:1px;stroke-linecap:round;stroke-linejoin:miter;stroke-opacity:1"
               d="m 12.221641,997.58284 c 6.787808,-1.44779 15.339683,-1.91388 18.976202,-1.20297"
               id="path4058"
               inkscape:connector-curvature="0"
               inkscape:transform-center-x="14.683117"
               inkscape:transform-center-y="-1.1896188" />
            <path
               style="fill:none;stroke:#000000;stroke-width:1px;stroke-linecap:round;stroke-linejoin:miter;stroke-opacity:1"
               d="m 11.448445,1005.0282 c 7.473348,-2.8604 13.454396,-4.6024 18.487024,-4.9831"
               id="path4060"
               inkscape:connector-curvature="0"
               inkscape:transform-center-x="15.700901"
               inkscape:transform-center-y="4.529494" />
          </g>
          <g
             id="g4070">
            <path
               style="fill:none;stroke:#000000;stroke-width:1px;stroke-linecap:round;stroke-linejoin:miter;stroke-opacity:1"
               d="m 44.876123,994.97087 c 7.856792,-3.38544 15.507607,-5.04954 18.107601,-5.54889"
               id="path4062"
               inkscape:connector-curvature="0"
               inkscape:transform-center-x="-11.22903"
               inkscape:transform-center-y="-5.7907644" />
            <path
               style="fill:none;stroke:#000000;stroke-width:1px;stroke-linecap:round;stroke-linejoin:miter;stroke-opacity:1"
               d="m 45.364764,996.94436 c 10.11569,-3.18229 25.153937,-4.42553 28.444609,-4.71719"
               id="path4064"
               inkscape:connector-curvature="0"
               inkscape:transform-center-x="-16.886176"
               inkscape:transform-center-y="-3.4014244" />
            <path
               style="fill:none;stroke:#000000;stroke-width:1px;stroke-linecap:round;stroke-linejoin:miter;stroke-opacity:1"
               d="m 46.921762,998.33017 c 7.660413,-0.54451 14.209711,0.53327 17.578096,1.62408"
               id="path4068"
               inkscape:connector-curvature="0"
               inkscape:transform-center-x="-13.009917"
               inkscape:transform-center-y="1.0821086" />
          </g>
        </g>
        <g
           id="g4111">
          <path
             sodipodi:nodetypes="ssss"
             transform="translate(0,946.06298)"
             inkscape:connector-curvature="0"
             id="path4093"
             d="m 31.964286,35.183138 c -2.035531,0.325434 -2.633929,7.1875 -1.205357,7.544643 1.428571,0.357143 2.232143,-2.098214 2.321428,-3.616072 0.08929,-1.517857 0.142081,-4.12972 -1.116071,-3.928571 z"
             style="fill:#000000;fill-opacity:1;stroke:none;stroke-opacity:1" />
          <path
             sodipodi:nodetypes="ssss"
             transform="translate(0,946.06298)"
             inkscape:connector-curvature="0"
             id="path4095"
             d="m 48.616071,38.397424 c -2.769613,0.678849 -2.633928,6.5625 -1.249999,6.651785 1.383928,0.08929 2.321428,-2.276785 2.276785,-3.705357 -0.04464,-1.428571 -0.02264,-3.192551 -1.026786,-2.946428 z"
             style="fill:#000000;fill-opacity:1;stroke:none;stroke-opacity:1" />
        </g>
        <g
           id="g4115">
          <path
             sodipodi:nodetypes="ccc"
             transform="translate(0,946.06298)"
             inkscape:connector-curvature="0"
             id="path4097"
             d="m 16.541248,28.264925 c -0.757615,-5.934646 -1.325825,-12.563772 -0.820749,-12.942579 3.276978,1.67872 8.871048,5.498554 12.690041,9.912122"
             style="fill:none;stroke:#000000;stroke-width:0.99921260000000001;stroke-linecap:round;stroke-linejoin:round;stroke-opacity:1;stroke-miterlimit:4;stroke-dasharray:none" />
          <path
             sodipodi:nodetypes="ccc"
             transform="translate(0,946.06298)"
             inkscape:connector-curvature="0"
             id="path4099"
             d="m 59.788404,27.759849 c 4.966734,-4.918918 10.732871,-8.712566 10.732871,-8.712566 0,0 0.644806,7.249958 -0.883884,13.826463"
             style="fill:none;stroke:#000000;stroke-width:1px;stroke-linecap:round;stroke-linejoin:round;stroke-opacity:1" />
        </g>
      </g>
      <g
         id="g4147">
        <g
           id="g4139">
          <path
             sodipodi:nodetypes="cscscsc"
             inkscape:connector-curvature="0"
             id="path4101"
             d="m 36.785714,1023.0765 c -1.607143,1.1607 -2.566965,2.7455 -2.209822,2.7455 0.357143,0 0.825893,0.3349 0.825893,0.3349 0,0 0.224832,1.1893 0.669643,1.5178 0.307329,0.227 1.138393,0.1339 1.138393,0.1339 0,0 0.310474,0.9924 0.736603,1.0715 1.04705,0.1943 2.633928,-1.8081 2.633928,-1.8081"
             style="fill:none;stroke:#000000;stroke-width:1px;stroke-linecap:round;stroke-linejoin:round;stroke-opacity:1" />
          <path
             sodipodi:nodetypes="cscscsc"
             inkscape:connector-curvature="0"
             id="path4103"
             d="m 38.750001,1030.9783 c 0,0 -2.486201,2.2373 -1.785714,3.2589 0.382036,0.5572 1.651785,0.2678 1.651785,0.2678 0,0 0.385834,0.7195 0.848215,0.9822 0.464548,0.2639 1.5625,-0.3572 1.5625,-0.3572 0,0 0.756464,0.8458 1.25,0.8036 1.448181,-0.1238 3.214285,-2.9464 3.214285,-2.9464"
             style="fill:none;stroke:#000000;stroke-width:1px;stroke-linecap:round;stroke-linejoin:round;stroke-opacity:1" />
        </g>
        <g
           id="g4143">
          <path
             sodipodi:nodetypes="cscscsc"
             inkscape:connector-curvature="0"
             id="path4105"
             d="m 82.093612,1032.3736 c 0,0 -0.935629,1.1237 -0.726047,1.7046 0.132551,0.3675 1.041719,0.5367 1.041719,0.5367 0,0 0.247501,0.6683 0.536644,0.8207 0.437567,0.2307 1.483661,-0.032 1.483661,-0.032 0,0 0.579262,0.5849 0.947018,0.5682 1.0155,-0.046 2.462247,-1.7994 2.462247,-1.7994"
             style="fill:none;stroke:#000000;stroke-width:1px;stroke-linecap:round;stroke-linejoin:round;stroke-opacity:1" />
          <path
             sodipodi:nodetypes="cscscsc"
             inkscape:connector-curvature="0"
             id="path4107"
             d="m 84.348057,1025.1938 c 0,0 -0.288027,1.4157 0.126269,1.894 0.331061,0.3822 1.483661,0.3157 1.483661,0.3157 0,0 0.42674,0.7161 0.789182,0.8523 0.376361,0.1414 1.199556,-0.1263 1.199556,-0.1263 0,0 0.392965,0.7866 0.757615,0.7892 1.227669,0.01 2.588515,-2.6201 2.588515,-2.6201"
             style="fill:none;stroke:#000000;stroke-width:1px;stroke-linecap:round;stroke-linejoin:round;stroke-opacity:1" />
        </g>
      </g>
      <path
         sodipodi:nodetypes="csc"
         inkscape:connector-curvature="0"
         id="path4109"
         d="m 100.55781,996.97751 c 9.39286,-7.20336 4.25102,-8.55611 6.97278,-15.36572 2.46026,-6.15535 9.21085,-3.93031 9.21085,-3.93031"
         style="fill:none;stroke:#000000;stroke-width:1px;stroke-linecap:round;stroke-linejoin:miter;stroke-opacity:1" />
    </g>
  </g>
</svg>
